<svg width="200" height="200" viewBox="100 60 260 160" xmlns="http://www.w3.org/2000/svg">
  <defs>
    <marker id="arrow" viewBox="0 0 10 10" refX="8" refY="5" markerWidth="5" markerHeight="5" orient="auto-start-reverse">
      <path d="M2 1L8 5L2 9" fill="none" stroke="context-stroke" stroke-width="1.5" stroke-linecap="round" stroke-linejoin="round"/>
    </marker>
  </defs>
  <circle cx="140" cy="180" r="6" fill="#7dd3fc" opacity="0.6"/>
  <circle cx="170" cy="120" r="8" fill="#7dd3fc" opacity="0.75"/>
  <circle cx="215" cy="80" r="6" fill="#7dd3fc" opacity="0.6"/>
  <circle cx="200" cy="160" r="7" fill="#38bdf8"/>
  <circle cx="255" cy="130" r="10" fill="#0ea5e9"/>
  <circle cx="310" cy="100" r="7" fill="#7dd3fc" opacity="0.8"/>
  <circle cx="300" cy="170" r="6" fill="#38bdf8" opacity="0.7"/>
  <circle cx="255" cy="195" r="5" fill="#7dd3fc" opacity="0.5"/>
  <line x1="146" y1="175" x2="164" y2="127" stroke="#7dd3fc" stroke-width="1.2" fill="none" marker-end="url(#arrow)" opacity="0.6"/>
  <line x1="176" y1="115" x2="211" y2="85" stroke="#38bdf8" stroke-width="1.2" fill="none" marker-end="url(#arrow)" opacity="0.65"/>
  <line x1="207" y1="154" x2="246" y2="136" stroke="#0ea5e9" stroke-width="1.4" fill="none" marker-end="url(#arrow)" opacity="0.8"/>
  <line x1="264" y1="125" x2="304" y2="104" stroke="#38bdf8" stroke-width="1.2" fill="none" marker-end="url(#arrow)" opacity="0.7"/>
  <line x1="262" y1="135" x2="298" y2="165" stroke="#7dd3fc" stroke-width="1" fill="none" marker-end="url(#arrow)" opacity="0.5"/>
  <line x1="175" y1="125" x2="197" y2="157" stroke="#7dd3fc" stroke-width="0.8" fill="none" marker-end="url(#arrow)" opacity="0.4"/>
  <line x1="258" y1="190" x2="296" y2="173" stroke="#7dd3fc" stroke-width="0.8" fill="none" marker-end="url(#arrow)" opacity="0.4"/>
</svg>
